<svg width="3232" height="2067" xmlns="http://www.w3.org/2000/svg" xmlns:xlink="http://www.w3.org/1999/xlink" xml:space="preserve" overflow="hidden"><defs><clipPath id="clip0"><rect x="439" y="244" width="3232" height="2067"/></clipPath></defs><g clip-path="url(#clip0)" transform="translate(-439 -244)"><path d="M0 0 218.088 0 218.088 125.488" stroke="#A1C3F1" stroke-width="3.4375" stroke-miterlimit="8" stroke-dasharray="27.5 10.3125 3.4375 10.3125 3.4375 10.3125" fill="none" fill-rule="evenodd" transform="matrix(1.83697e-16 1 1 -1.83697e-16 2444.5 658.5)"/><path d="M0 0 252.163 0 252.163 362.6" stroke="#A1C3F1" stroke-width="3.4375" stroke-miterlimit="8" stroke-dasharray="27.5 10.3125 3.4375 10.3125 3.4375 10.3125" fill="none" fill-rule="evenodd" transform="matrix(1.83697e-16 1 1 -1.83697e-16 2815.5 931.5)"/><path d="M2815.5 1520.67 2815.5 1183.5 3178.1 1183.5" stroke="#A1C3F1" stroke-width="3.4375" stroke-miterlimit="8" stroke-dasharray="27.5 10.3125 3.4375 10.3125 3.4375 10.3125" fill="none" fill-rule="evenodd"/><path d="M0 0 54.5211 0 54.5211 344.565" stroke="#A1C3F1" stroke-width="3.4375" stroke-miterlimit="8" stroke-dasharray="27.5 10.3125 3.4375 10.3125 3.4375 10.3125" fill="none" fill-rule="evenodd" transform="matrix(1.83697e-16 1 1 -1.83697e-16 2100.5 1738.5)"/><path d="M687.501 2113.5 687.501 2189.27 687.5 2189.27 687.5 2265.04" stroke="#A1C3F1" stroke-width="3.4375" stroke-miterlimit="8" stroke-dasharray="27.5 10.3125 3.4375 10.3125 3.4375 10.3125" fill="none" fill-rule="evenodd"/><path d="M687.5 2195.98 687.5 2155.5 1148.94 2155.5" stroke="#A1C3F1" stroke-width="3.4375" stroke-miterlimit="8" stroke-dasharray="27.5 10.3125 3.4375 10.3125 3.4375 10.3125" fill="none" fill-rule="evenodd"/><path d="M687.5 1637.98 687.5 1597.5 1148.94 1597.5" stroke="#A1C3F1" stroke-width="3.4375" stroke-miterlimit="8" stroke-dasharray="27.5 10.3125 3.4375 10.3125 3.4375 10.3125" fill="none" fill-rule="evenodd"/><path d="M687.5 530.981 687.5 490.5 1148.94 490.5" stroke="#A1C3F1" stroke-width="3.4375" stroke-miterlimit="8" stroke-dasharray="27.5 10.3125 3.4375 10.3125 3.4375 10.3125" fill="none" fill-rule="evenodd"/><path d="M0 0 42.497 0 42.497 461.442" stroke="#A1C3F1" stroke-width="3.4375" stroke-miterlimit="8" stroke-dasharray="27.5 10.3125 3.4375 10.3125 3.4375 10.3125" fill="none" fill-rule="evenodd" transform="matrix(1.83697e-16 1 1 -1.83697e-16 687.5 447.5)"/><path d="M0 0 33.1108 0 33.1108 348" stroke="#A1C3F1" stroke-width="3.4375" stroke-miterlimit="8" stroke-dasharray="27.5 10.3125 3.4375 10.3125 3.4375 10.3125" fill="none" fill-rule="evenodd" transform="matrix(1.83697e-16 1 1 -1.83697e-16 1394.5 356.5)"/><path d="M1394.5 435.855 1394.5 356.678 1467.41 356.678 1467.41 277.5" stroke="#A1C3F1" stroke-width="3.4375" stroke-miterlimit="8" stroke-dasharray="27.5 10.3125 3.4375 10.3125 3.4375 10.3125" fill="none" fill-rule="evenodd"/><path d="M0 0 54.5211 0 54.5211 344.565" stroke="#A1C3F1" stroke-width="3.4375" stroke-miterlimit="8" stroke-dasharray="27.5 10.3125 3.4375 10.3125 3.4375 10.3125" fill="none" fill-rule="evenodd" transform="matrix(1.83697e-16 1 1 -1.83697e-16 2100.5 606.5)"/><path d="M2100.5 720.42 2100.5 522.155 2200.98 522.155 2200.98 530.5" stroke="#A1C3F1" stroke-width="3.4375" stroke-miterlimit="8" stroke-dasharray="27.5 10.3125 3.4375 10.3125 3.4375 10.3125" fill="none" fill-rule="evenodd"/><path d="M1742.5 944.359 1742.5 767.5 1855.46 767.5" stroke="#A1C3F1" stroke-width="3.4375" stroke-miterlimit="8" stroke-dasharray="27.5 10.3125 3.4375 10.3125 3.4375 10.3125" fill="none" fill-rule="evenodd"/><path d="M0 0 33.1108 0 33.1108 348" stroke="#A1C3F1" stroke-width="3.4375" stroke-miterlimit="8" stroke-dasharray="27.5 10.3125 3.4375 10.3125 3.4375 10.3125" fill="none" fill-rule="evenodd" transform="matrix(1.83697e-16 1 1 -1.83697e-16 1394.5 911.5)"/><path d="M1394.5 994.3 1394.5 889.5 1586.38 889.5" stroke="#A1C3F1" stroke-width="3.4375" stroke-miterlimit="8" stroke-dasharray="27.5 10.3125 3.4375 10.3125 3.4375 10.3125" fill="none" fill-rule="evenodd"/><path d="M0 0 108.307 0 108.307 0.000360892 73.1345 0.000360892" stroke="#A1C3F1" stroke-width="3.4375" stroke-miterlimit="8" stroke-dasharray="27.5 10.3125 3.4375 10.3125 3.4375 10.3125" fill="none" fill-rule="evenodd" transform="matrix(-1.83697e-16 -1 -1 1.83697e-16 1394.5 1564.63)"/><path d="M0 0 84.2936 0 84.2936 0.000360892 168.587 0.000360892" stroke="#A1C3F1" stroke-width="3.4375" stroke-miterlimit="8" stroke-dasharray="27.5 10.3125 3.4375 10.3125 3.4375 10.3125" fill="none" fill-rule="evenodd" transform="matrix(-1.83697e-16 -1 -1 1.83697e-16 2100.5 1853.09)"/><path d="M0 0 165.104 0 165.104 112.964" stroke="#A1C3F1" stroke-width="3.4375" stroke-miterlimit="8" stroke-dasharray="27.5 10.3125 3.4375 10.3125 3.4375 10.3125" fill="none" fill-rule="evenodd" transform="matrix(1.83697e-16 1 1 -1.83697e-16 1742.5 1519.5)"/><path d="M0 0 33.1108 0 33.1108 348" stroke="#A1C3F1" stroke-width="3.4375" stroke-miterlimit="8" stroke-dasharray="27.5 10.3125 3.4375 10.3125 3.4375 10.3125" fill="none" fill-rule="evenodd" transform="matrix(1.83697e-16 1 1 -1.83697e-16 1394.5 2028.5)"/><path d="M0 0 39.8151 0 39.8151 0.000721785 79.6302 0.000721785" stroke="#A1C3F1" stroke-width="3.4375" stroke-miterlimit="8" stroke-dasharray="27.5 10.3125 3.4375 10.3125 3.4375 10.3125" fill="none" fill-rule="evenodd" transform="matrix(-1.83697e-16 -1 -1 1.83697e-16 1394.5 2109.13)"/><path d="M0 0 128.272 0 128.272 167.977" stroke="#A1C3F1" stroke-width="3.4375" stroke-miterlimit="8" stroke-dasharray="27.5 10.3125 3.4375 10.3125 3.4375 10.3125" fill="none" fill-rule="evenodd" transform="matrix(1.83697e-16 1 1 -1.83697e-16 687.5 1555.5)"/><path d="M1149.5 2109.5 1621.33 2109.5 1639.5 2127.67 1639.5 2218.5 1639.5 2218.5 1167.67 2218.5 1149.5 2200.33 1149.5 2109.5Z" stroke="#3B4250" stroke-width="6.875" stroke-miterlimit="8" fill="#28303E" fill-rule="evenodd"/><path d="M1149.5 1920.5 1621.33 1920.5 1639.5 1938.67 1639.5 2029.5 1639.5 2029.5 1167.67 2029.5 1149.5 2011.33 1149.5 1920.5Z" stroke="#3B4250" stroke-width="6.875" stroke-miterlimit="8" fill="#28303E" fill-rule="evenodd"/><text fill="#A1C3F1" font-family="Calibri,Calibri_MSFontService,sans-serif" font-weight="700" font-size="50" transform="matrix(1 0 0 1 1282.74 1991)">Vulpixneel</text><path d="M1855.5 1852.5 2326.33 1852.5 2344.5 1870.67 2344.5 1961.5 2344.5 1961.5 1873.67 1961.5 1855.5 1943.33 1855.5 1852.5Z" stroke="#3B4250" stroke-width="6.875" stroke-miterlimit="8" fill="#28303E" fill-rule="evenodd"/><path d="M1149.5 1555.5 1621.33 1555.5 1639.5 1573.67 1639.5 1664.5 1639.5 1664.5 1167.67 1664.5 1149.5 1646.33 1149.5 1555.5Z" stroke="#3B4250" stroke-width="6.875" stroke-miterlimit="8" fill="#28303E" fill-rule="evenodd"/><path d="M1149.5 1367.5 1621.33 1367.5 1639.5 1385.67 1639.5 1476.5 1639.5 1476.5 1167.67 1476.5 1149.5 1458.33 1149.5 1367.5Z" stroke="#3B4250" stroke-width="6.875" stroke-miterlimit="8" fill="#28303E" fill-rule="evenodd"/><text fill="#A1C3F1" font-family="Calibri,Calibri_MSFontService,sans-serif" font-weight="700" font-size="50" transform="matrix(1 0 0 1 1322.56 1438)">Lokner</text><path d="M1855.5 1629.5 2326.33 1629.5 2344.5 1647.67 2344.5 1738.5 2344.5 1738.5 1873.67 1738.5 1855.5 1720.33 1855.5 1629.5Z" stroke="#3B4250" stroke-width="6.875" stroke-miterlimit="8" fill="#28303E" fill-rule="evenodd"/><path d="M1149.5 994.5 1621.33 994.5 1639.5 1012.67 1639.5 1103.5 1639.5 1103.5 1167.67 1103.5 1149.5 1085.33 1149.5 994.5Z" stroke="#3B4250" stroke-width="6.875" stroke-miterlimit="8" fill="#28303E" fill-rule="evenodd"/><text fill="#A1C3F1" font-family="Calibri,Calibri_MSFontService,sans-serif" font-weight="700" font-size="50" transform="matrix(1 0 0 1 1199.96 1065)">30cm de decepção</text><path d="M1149.5 799.5 1621.33 799.5 1639.5 817.667 1639.5 908.5 1639.5 908.5 1167.67 908.5 1149.5 890.333 1149.5 799.5Z" stroke="#3B4250" stroke-width="6.875" stroke-miterlimit="8" fill="#28303E" fill-rule="evenodd"/><text fill="#A1C3F1" font-family="Calibri,Calibri_MSFontService,sans-serif" font-weight="700" font-size="50" transform="matrix(1 0 0 1 1307.67 870)">Samuraí</text><path d="M1149.5 435.5 1621.33 435.5 1639.5 453.667 1639.5 544.5 1639.5 544.5 1167.67 544.5 1149.5 526.333 1149.5 435.5Z" stroke="#3B4250" stroke-width="6.875" stroke-miterlimit="8" fill="#28303E" fill-rule="evenodd"/><path d="M1149.5 247.5 1621.33 247.5 1639.5 265.667 1639.5 356.5 1639.5 356.5 1167.67 356.5 1149.5 338.333 1149.5 247.5Z" stroke="#3B4250" stroke-width="6.875" stroke-miterlimit="8" fill="#28303E" fill-rule="evenodd"/><text fill="#A1C3F1" font-family="Calibri,Calibri_MSFontService,sans-serif" font-weight="700" font-size="50" transform="matrix(1 0 0 1 1232.33 319)">Fangirl<tspan font-size="50" x="152.969" y="0">do </tspan><tspan font-size="50" x="218.281" y="0">olleh</tspan></text><path d="M442.5 530.5 914.333 530.5 932.5 548.667 932.5 639.5 932.5 639.5 460.667 639.5 442.5 621.333 442.5 530.5Z" stroke="#3B4250" stroke-width="6.875" stroke-miterlimit="8" fill="#28303E" fill-rule="evenodd"/><text fill="#A1C3F1" font-family="Calibri,Calibri_MSFontService,sans-serif" font-weight="700" font-size="50" transform="matrix(1 0 0 1 640.521 601)">Töm</text><path d="M442.5 338.5 914.333 338.5 932.5 356.667 932.5 447.5 932.5 447.5 460.667 447.5 442.5 429.333 442.5 338.5Z" stroke="#3B4250" stroke-width="6.875" stroke-miterlimit="8" fill="#28303E" fill-rule="evenodd"/><text fill="#A1C3F1" font-family="Calibri,Calibri_MSFontService,sans-serif" font-weight="700" font-size="50" transform="matrix(1 0 0 1 588.672 409)">Ralop206</text><path d="M2570.5 822.5 3041.33 822.5 3059.5 840.667 3059.5 931.5 3059.5 931.5 2588.67 931.5 2570.5 913.333 2570.5 822.5Z" stroke="#3B4250" stroke-width="6.875" stroke-miterlimit="8" fill="#28303E" fill-rule="evenodd"/><path d="M2570.5 1520.5 3041.33 1520.5 3059.5 1538.67 3059.5 1629.5 3059.5 1629.5 2588.67 1629.5 2570.5 1611.33 2570.5 1520.5Z" stroke="#3B4250" stroke-width="6.875" stroke-miterlimit="8" fill="#28303E" fill-rule="evenodd"/><path d="M1855.5 713.5 2326.33 713.5 2344.5 731.667 2344.5 822.5 2344.5 822.5 1873.67 822.5 1855.5 804.333 1855.5 713.5Z" stroke="#3B4250" stroke-width="6.875" stroke-miterlimit="8" fill="#28303E" fill-rule="evenodd"/><path d="M1855.5 490.5 2326.33 490.5 2344.5 508.667 2344.5 599.5 2344.5 599.5 1873.67 599.5 1855.5 581.333 1855.5 490.5Z" stroke="#3B4250" stroke-width="6.875" stroke-miterlimit="8" fill="#28303E" fill-rule="evenodd"/><path d="M3177.5 1128.5 3649.17 1128.5 3667.5 1146.83 3667.5 1238.5 3667.5 1238.5 3195.83 1238.5 3177.5 1220.17 3177.5 1128.5Z" stroke="#3B4250" stroke-width="6.875" stroke-miterlimit="8" fill="#28303E" fill-rule="evenodd"/><path d="M0 0 154.327 0 154.327 112.963" stroke="#A1C3F1" stroke-width="3.4375" stroke-miterlimit="8" stroke-dasharray="27.5 10.3125 3.4375 10.3125 3.4375 10.3125" fill="none" fill-rule="evenodd" transform="matrix(1.83697e-16 1 1 -1.83697e-16 1742.5 390.5)"/><path d="M1742.5 2060.68 1742.5 1907.5 1855.46 1907.5" stroke="#A1C3F1" stroke-width="3.4375" stroke-miterlimit="8" stroke-dasharray="27.5 10.3125 3.4375 10.3125 3.4375 10.3125" fill="none" fill-rule="evenodd"/><path d="M2444.5 1793.59 2444.5 1575.5 2569.99 1575.5" stroke="#A1C3F1" stroke-width="3.4375" stroke-miterlimit="8" stroke-dasharray="27.5 10.3125 3.4375 10.3125 3.4375 10.3125" fill="none" fill-rule="evenodd"/><path d="M442.5 1638.5 914.333 1638.5 932.5 1656.67 932.5 1747.5 932.5 1747.5 460.667 1747.5 442.5 1729.33 442.5 1638.5Z" stroke="#3B4250" stroke-width="6.875" stroke-miterlimit="8" fill="#28303E" fill-rule="evenodd"/><text fill="#A1C3F1" font-family="Calibri,Calibri_MSFontService,sans-serif" font-weight="700" font-size="50" transform="matrix(1 0 0 1 596.693 1709)">deze6eis</text><path d="M442.5 1446.5 914.333 1446.5 932.5 1464.67 932.5 1555.5 932.5 1555.5 460.667 1555.5 442.5 1537.33 442.5 1446.5Z" stroke="#3B4250" stroke-width="6.875" stroke-miterlimit="8" fill="#28303E" fill-rule="evenodd"/><text fill="#A1C3F1" font-family="Calibri,Calibri_MSFontService,sans-serif" font-weight="700" font-size="50" transform="matrix(1 0 0 1 554.01 1517)">Alan Jackson</text><path d="M442.5 2196.5 914.333 2196.5 932.5 2214.67 932.5 2305.5 932.5 2305.5 460.667 2305.5 442.5 2287.33 442.5 2196.5Z" stroke="#3B4250" stroke-width="6.875" stroke-miterlimit="8" fill="#28303E" fill-rule="evenodd"/><text fill="#A1C3F1" font-family="Calibri,Calibri_MSFontService,sans-serif" font-weight="700" font-size="50" transform="matrix(1 0 0 1 560.885 2267)">Nag<tspan font-size="50" x="93.3854" y="0">Twysen</tspan></text><path d="M442.5 2004.5 914.333 2004.5 932.5 2022.67 932.5 2113.5 932.5 2113.5 460.667 2113.5 442.5 2095.33 442.5 2004.5Z" stroke="#3B4250" stroke-width="6.875" stroke-miterlimit="8" fill="#28303E" fill-rule="evenodd"/><text fill="#A1C3F1" font-family="Calibri,Calibri_MSFontService,sans-serif" font-weight="700" font-size="50" transform="matrix(1 0 0 1 531.667 2075)">Teteu<tspan font-size="50" x="131.771" y="0">de Skate</tspan></text><path d="M0 0 33.1108 0 33.1108 348" stroke="#A1C3F1" stroke-width="3.4375" stroke-miterlimit="8" stroke-dasharray="27.5 10.3125 3.4375 10.3125 3.4375 10.3125" fill="none" fill-rule="evenodd" transform="matrix(1.83697e-16 1 1 -1.83697e-16 1394.5 1486.5)"/></g></svg>